# xmcd
#
# Track frame offsets:
#	150
#	16332
#	33807
#	49859
#	60529
#	76726
#	90231
#	107760
#	125078
#	139222
#	151319
#	165710
#
# Disc length: 2371 seconds
#
# Revision: 1
# Processed by: cddbd v1.5.2PL0 Copyright (c) Steve Scherf et al.
# Submitted via: audiograbber 1.83.01
#
DISCID=8d09410c
DTITLE=Martina McBride - Everlasting
DYEAR=2014
DGENRE=Country
TTITLE0=Do Right Woman, Do Right Man
TTITLE1=Suspicious Minds
TTITLE2=If You Don't Know Me By Now
TTITLE3=Little Bit of Rain
TTITLE4=Bring It On Home To Me
TTITLE5=Come See About Me
TTITLE6=What Becomes of the Brokenhearted
TTITLE7=I've Been Loving You Too Long
TTITLE8=Wild Night
TTITLE9=In the Basement
TTITLE10=My Babe
TTITLE11=To Know Him is To Love Him
EXTD=
EXTT0=
EXTT1=
EXTT2=
EXTT3=
EXTT4=
EXTT5=
EXTT6=
EXTT7=
EXTT8=
EXTT9=
EXTT10=
EXTT11=
PLAYORDER=
